<mxfile host="app.diagrams.net" agent="Mozilla/5.0 (Windows NT 10.0; Win64; x64) AppleWebKit/537.36 (KHTML, like Gecko) Chrome/135.0.0.0 Safari/537.36" version="26.2.5">
  <diagram name="Page-1" id="9QBp27o7p3BLpgVhmXYe">
    <mxGraphModel dx="1305" dy="659" grid="1" gridSize="10" guides="1" tooltips="1" connect="1" arrows="1" fold="1" page="1" pageScale="1" pageWidth="827" pageHeight="1169" math="0" shadow="0">
      <root>
        <mxCell id="0" />
        <mxCell id="1" parent="0" />
        <mxCell id="iP_xmfIpfHtGR2reBh92-5" value="" style="endArrow=none;dashed=1;html=1;strokeWidth=5;rounded=0;" edge="1" parent="1">
          <mxGeometry width="50" height="50" relative="1" as="geometry">
            <mxPoint x="359.5" y="360" as="sourcePoint" />
            <mxPoint x="359.5" y="300" as="targetPoint" />
          </mxGeometry>
        </mxCell>
        <mxCell id="iP_xmfIpfHtGR2reBh92-20" value="" style="group" vertex="1" connectable="0" parent="1">
          <mxGeometry x="222.5" y="70.5" width="177.5" height="129.5" as="geometry" />
        </mxCell>
        <mxCell id="iP_xmfIpfHtGR2reBh92-16" value="" style="endArrow=none;html=1;rounded=0;strokeWidth=3;endSize=8;" edge="1" parent="iP_xmfIpfHtGR2reBh92-20">
          <mxGeometry width="50" height="50" relative="1" as="geometry">
            <mxPoint x="27.5" y="89.5" as="sourcePoint" />
            <mxPoint x="97.5" y="89.5" as="targetPoint" />
          </mxGeometry>
        </mxCell>
        <mxCell id="iP_xmfIpfHtGR2reBh92-17" value="" style="endArrow=none;html=1;rounded=0;strokeWidth=3;" edge="1" parent="iP_xmfIpfHtGR2reBh92-20">
          <mxGeometry width="50" height="50" relative="1" as="geometry">
            <mxPoint x="27.5" y="89.5" as="sourcePoint" />
            <mxPoint x="27.5" y="29.5" as="targetPoint" />
          </mxGeometry>
        </mxCell>
        <mxCell id="iP_xmfIpfHtGR2reBh92-18" value="" style="triangle;whiteSpace=wrap;html=1;rotation=90;fillColor=#b1ddf0;strokeColor=#10739e;container=0;" vertex="1" parent="iP_xmfIpfHtGR2reBh92-20">
          <mxGeometry x="12.5" y="-12.5" width="30" height="55" as="geometry" />
        </mxCell>
        <mxCell id="iP_xmfIpfHtGR2reBh92-1" value="" style="ellipse;whiteSpace=wrap;html=1;aspect=fixed;fillColor=#b1ddf0;strokeColor=#10739e;container=0;" vertex="1" parent="iP_xmfIpfHtGR2reBh92-20">
          <mxGeometry x="97.5" y="49.5" width="80" height="80" as="geometry" />
        </mxCell>
        <mxCell id="iP_xmfIpfHtGR2reBh92-8" value="" style="endArrow=classic;html=1;rounded=0;strokeWidth=4;" edge="1" parent="iP_xmfIpfHtGR2reBh92-20">
          <mxGeometry width="50" height="50" relative="1" as="geometry">
            <mxPoint x="177.5" y="129.5" as="sourcePoint" />
            <mxPoint x="97.5" y="49.5" as="targetPoint" />
          </mxGeometry>
        </mxCell>
        <mxCell id="iP_xmfIpfHtGR2reBh92-21" value="" style="group" vertex="1" connectable="0" parent="1">
          <mxGeometry x="220" y="170" width="177.5" height="129.5" as="geometry" />
        </mxCell>
        <mxCell id="iP_xmfIpfHtGR2reBh92-22" value="" style="endArrow=none;html=1;rounded=0;strokeWidth=3;endSize=8;" edge="1" parent="iP_xmfIpfHtGR2reBh92-21">
          <mxGeometry width="50" height="50" relative="1" as="geometry">
            <mxPoint x="27.5" y="89.5" as="sourcePoint" />
            <mxPoint x="97.5" y="89.5" as="targetPoint" />
          </mxGeometry>
        </mxCell>
        <mxCell id="iP_xmfIpfHtGR2reBh92-23" value="" style="endArrow=none;html=1;rounded=0;strokeWidth=3;" edge="1" parent="iP_xmfIpfHtGR2reBh92-21">
          <mxGeometry width="50" height="50" relative="1" as="geometry">
            <mxPoint x="27.5" y="89.5" as="sourcePoint" />
            <mxPoint x="27.5" y="29.5" as="targetPoint" />
          </mxGeometry>
        </mxCell>
        <mxCell id="iP_xmfIpfHtGR2reBh92-24" value="" style="triangle;whiteSpace=wrap;html=1;rotation=90;fillColor=#b1ddf0;strokeColor=#10739e;container=0;" vertex="1" parent="iP_xmfIpfHtGR2reBh92-21">
          <mxGeometry x="12.5" y="-12.5" width="30" height="55" as="geometry" />
        </mxCell>
        <mxCell id="iP_xmfIpfHtGR2reBh92-25" value="" style="ellipse;whiteSpace=wrap;html=1;aspect=fixed;fillColor=#b1ddf0;strokeColor=#10739e;container=0;" vertex="1" parent="iP_xmfIpfHtGR2reBh92-21">
          <mxGeometry x="97.5" y="49.5" width="80" height="80" as="geometry" />
        </mxCell>
        <mxCell id="iP_xmfIpfHtGR2reBh92-26" value="" style="endArrow=classic;html=1;rounded=0;strokeWidth=4;" edge="1" parent="iP_xmfIpfHtGR2reBh92-21">
          <mxGeometry width="50" height="50" relative="1" as="geometry">
            <mxPoint x="177.5" y="129.5" as="sourcePoint" />
            <mxPoint x="97.5" y="49.5" as="targetPoint" />
          </mxGeometry>
        </mxCell>
        <mxCell id="iP_xmfIpfHtGR2reBh92-27" value="" style="group" vertex="1" connectable="0" parent="1">
          <mxGeometry x="220" y="320" width="177.5" height="129.5" as="geometry" />
        </mxCell>
        <mxCell id="iP_xmfIpfHtGR2reBh92-28" value="" style="endArrow=none;html=1;rounded=0;strokeWidth=3;endSize=8;" edge="1" parent="iP_xmfIpfHtGR2reBh92-27">
          <mxGeometry width="50" height="50" relative="1" as="geometry">
            <mxPoint x="27.5" y="89.5" as="sourcePoint" />
            <mxPoint x="97.5" y="89.5" as="targetPoint" />
          </mxGeometry>
        </mxCell>
        <mxCell id="iP_xmfIpfHtGR2reBh92-29" value="" style="endArrow=none;html=1;rounded=0;strokeWidth=3;" edge="1" parent="iP_xmfIpfHtGR2reBh92-27">
          <mxGeometry width="50" height="50" relative="1" as="geometry">
            <mxPoint x="27.5" y="89.5" as="sourcePoint" />
            <mxPoint x="27.5" y="29.5" as="targetPoint" />
          </mxGeometry>
        </mxCell>
        <mxCell id="iP_xmfIpfHtGR2reBh92-30" value="" style="triangle;whiteSpace=wrap;html=1;rotation=90;fillColor=#b1ddf0;strokeColor=#10739e;container=0;" vertex="1" parent="iP_xmfIpfHtGR2reBh92-27">
          <mxGeometry x="12.5" y="-12.5" width="30" height="55" as="geometry" />
        </mxCell>
        <mxCell id="iP_xmfIpfHtGR2reBh92-31" value="" style="ellipse;whiteSpace=wrap;html=1;aspect=fixed;fillColor=#b1ddf0;strokeColor=#10739e;container=0;" vertex="1" parent="iP_xmfIpfHtGR2reBh92-27">
          <mxGeometry x="97.5" y="49.5" width="80" height="80" as="geometry" />
        </mxCell>
        <mxCell id="iP_xmfIpfHtGR2reBh92-32" value="" style="endArrow=classic;html=1;rounded=0;strokeWidth=4;" edge="1" parent="iP_xmfIpfHtGR2reBh92-27">
          <mxGeometry width="50" height="50" relative="1" as="geometry">
            <mxPoint x="177.5" y="129.5" as="sourcePoint" />
            <mxPoint x="97.5" y="49.5" as="targetPoint" />
          </mxGeometry>
        </mxCell>
        <mxCell id="iP_xmfIpfHtGR2reBh92-33" value="" style="endArrow=none;html=1;rounded=0;strokeWidth=4;" edge="1" parent="1">
          <mxGeometry width="50" height="50" relative="1" as="geometry">
            <mxPoint x="397.5" y="410" as="sourcePoint" />
            <mxPoint x="480" y="410" as="targetPoint" />
          </mxGeometry>
        </mxCell>
        <mxCell id="iP_xmfIpfHtGR2reBh92-34" value="" style="endArrow=none;html=1;rounded=0;strokeWidth=4;" edge="1" parent="1">
          <mxGeometry width="50" height="50" relative="1" as="geometry">
            <mxPoint x="397.5" y="260" as="sourcePoint" />
            <mxPoint x="480" y="260" as="targetPoint" />
          </mxGeometry>
        </mxCell>
        <mxCell id="iP_xmfIpfHtGR2reBh92-35" value="" style="endArrow=none;html=1;rounded=0;strokeWidth=4;" edge="1" parent="1">
          <mxGeometry width="50" height="50" relative="1" as="geometry">
            <mxPoint x="400" y="160" as="sourcePoint" />
            <mxPoint x="482.5" y="160" as="targetPoint" />
          </mxGeometry>
        </mxCell>
        <mxCell id="iP_xmfIpfHtGR2reBh92-36" value="" style="endArrow=none;html=1;rounded=0;strokeWidth=4;" edge="1" parent="1">
          <mxGeometry width="50" height="50" relative="1" as="geometry">
            <mxPoint x="480" y="410" as="sourcePoint" />
            <mxPoint x="480" y="160" as="targetPoint" />
          </mxGeometry>
        </mxCell>
        <mxCell id="iP_xmfIpfHtGR2reBh92-37" value="" style="endArrow=none;html=1;rounded=0;strokeWidth=4;" edge="1" parent="1">
          <mxGeometry width="50" height="50" relative="1" as="geometry">
            <mxPoint x="480" y="300" as="sourcePoint" />
            <mxPoint x="560" y="300" as="targetPoint" />
          </mxGeometry>
        </mxCell>
        <mxCell id="iP_xmfIpfHtGR2reBh92-39" value="RF Chain" style="rounded=1;whiteSpace=wrap;html=1;fontStyle=1;fillColor=#dae8fc;strokeColor=#6c8ebf;fontSize=22;" vertex="1" parent="1">
          <mxGeometry x="560" y="270" width="120" height="60" as="geometry" />
        </mxCell>
        <mxCell id="iP_xmfIpfHtGR2reBh92-40" value="" style="endArrow=none;html=1;rounded=0;strokeWidth=4;" edge="1" parent="1">
          <mxGeometry width="50" height="50" relative="1" as="geometry">
            <mxPoint x="680" y="300" as="sourcePoint" />
            <mxPoint x="750" y="300" as="targetPoint" />
          </mxGeometry>
        </mxCell>
        <mxCell id="iP_xmfIpfHtGR2reBh92-41" value="&lt;b&gt;&lt;font&gt;y[n]&lt;/font&gt;&lt;/b&gt;" style="text;html=1;align=center;verticalAlign=middle;whiteSpace=wrap;rounded=0;fontSize=29;" vertex="1" parent="1">
          <mxGeometry x="690" y="260" width="60" height="30" as="geometry" />
        </mxCell>
        <mxCell id="iP_xmfIpfHtGR2reBh92-42" value="&lt;b&gt;&lt;font&gt;f[n]&lt;/font&gt;&lt;/b&gt;" style="text;html=1;align=center;verticalAlign=middle;whiteSpace=wrap;rounded=0;fontSize=29;" vertex="1" parent="1">
          <mxGeometry x="330" y="40" width="60" height="30" as="geometry" />
        </mxCell>
        <mxCell id="iP_xmfIpfHtGR2reBh92-43" value="" style="endArrow=classic;html=1;rounded=0;fontSize=14;strokeWidth=5;" edge="1" parent="1">
          <mxGeometry width="50" height="50" relative="1" as="geometry">
            <mxPoint x="40" y="270" as="sourcePoint" />
            <mxPoint x="190" y="270" as="targetPoint" />
          </mxGeometry>
        </mxCell>
        <mxCell id="iP_xmfIpfHtGR2reBh92-44" value="h" style="text;html=1;align=center;verticalAlign=middle;whiteSpace=wrap;rounded=0;fontStyle=1;fontSize=31;" vertex="1" parent="1">
          <mxGeometry x="80" y="213" width="60" height="30" as="geometry" />
        </mxCell>
      </root>
    </mxGraphModel>
  </diagram>
</mxfile>
